. 
  
http://www.torrentday.com/        :     The Hottest Private Tracker On The Net!!!


               www . TorrentDay . Com 
(((((((((((((= Enjoy No RAR releases =))))))))))))))))))))


...................................NFO:....................................

.*******************************************************************************
              The.Thing.About.My.Folks.2005.DVDRip.AC3.X264-BARC0DE
*******************************************************************************

-------------------------------------------------------------------------------
                              General Information
-------------------------------------------------------------------------------
Type.................: Movie
Name.................: The Thing About My Folks
Movie Information....: http://www.imdb.com/title/tt0429177/
Genre................: Comedy
-------------------------------------------------------------------------------
                                    PLOT
-------------------------------------------------------------------------------
Ben's dad Sam shows up one night with a note from Ben's mother (Sam's wife of 46 years), 
that she has left. While Ben's wife and his three sisters try to find her, Ben takes 
Sam on a day trip to see a farmhouse that's for sale. The day trip turns into a road 
trip while dad and son explore their past, their relationship, and why Sam's wife 
might have left him. The road trip includes fishing, drinking, playing pool, 
sleeping under the stars, and frank discussion. Anger simmers close at hand, as do 
love and hope. Where Sam's wife is - and why she left - leads to the movie's resolution. 

-------------------------------------------------------------------------------
                                    CAST
-------------------------------------------------------------------------------
Peter Falk	... 	Sam Kleinman
Paul Reiser	... 	Ben Kleinman
Olympia Dukakis	... 	Muriel Kleinman
Elizabeth Perkins	... 	Rachel Kleinman
Mackenzie Connolly	... 	Lilly Kleinman
Lydia Jordan	... 	Mia Kleinman
Ann Dowd	... 	Linda
Claire Beckman	... 	Hillary
Mimi Lieber	... 	Bonnie
Bernie McInerney	... 	Mr. Harrison
Catherine Taormina	... 	Young Muriel Kleinman
Rachel Robinson	... 	Voice of Young Muriel
Rich Duva	... 	Young Sam Kleinman
Marshall Efron	... 	Tow Truck Driver
Dennis Sheehan	... 	Tackle Shop Owner

-------------------------------------------------------------------------------
                                    MEDiA iNFO
-------------------------------------------------------------------------------

General
Complete name                    : The.Thing.About.My.Folks.2005.DVDRip.AC3.X264-BARC0DE.mkv
Format                           : Matroska
File size                        : 1.43 GiB
Duration                         : 1h 33mn
Overall bit rate                 : 2 191 Kbps

Video
ID                               : 1
Format                           : AVC
Format/Info                      : Advanced Video Codec
Format profile                   : High@L3.0
Format settings, CABAC           : Yes
Format settings, ReFrames        : 3 frames
Muxing mode                      : Container profile=Unknown@3.0
Codec ID                         : V_MPEG4/ISO/AVC
Duration                         : 1h 33mn
Bit rate                         : 2 008 Kbps
Width                            : 720 pixels
Height                           : 400 pixels
Display aspect ratio             : 16:9
Frame rate                       : 25.000 fps
Color space                      : YUV
Chroma subsampling               : 4:2:0
Bit depth                        : 8 bits
Scan type                        : Progressive
Bits/(Pixel*Frame)               : 0.279
Stream size                      : 1.26 GiB (88%)
Writing library                  : x264 core 79

Audio
ID                               : 2
Format                           : AC-3
Format/Info                      : Audio Coding 3
Mode extension                   : CM (complete main)
Codec ID                         : A_AC3
Duration                         : 1h 33mn
Bit rate mode                    : Constant
Bit rate                         : 224 Kbps
Channel(s)                       : 5 channels
Channel positions                : Front: L C R, Side: L R
Sampling rate                    : 48.0 KHz
Stream size                      : 150 MiB (10%)
Language                         : English

Menu
00:00:00.000                     : Chapter 1
00:10:06.600                     : Chapter 2
00:19:28.800                     : Chapter 3
00:32:51.960                     : Chapter 4
00:43:31.920                     : Chapter 5
01:00:17.880                     : Chapter 6
01:08:38.520                     : Chapter 7
01:17:40.320                     : Chapter 8